<?xml version="1.0" encoding="utf-8"?>
<!-- Generator: Adobe Illustrator 24.2.1, SVG Export Plug-In . SVG Version: 6.00 Build 0)  -->
<svg version="1.1" id="Layer_1" xmlns="http://www.w3.org/2000/svg" xmlns:xlink="http://www.w3.org/1999/xlink" x="0px" y="0px"
	 viewBox="0 0 400 300" style="enable-background:new 0 0 400 300;" xml:space="preserve">
<style type="text/css">
	.st0{opacity:0.3;}
	.st1{opacity:0.7;fill:#FFFFFF;enable-background:new    ;}
	.st2{fill:#BEBEC0;}
	.st3{fill:#231F20;}
	.st4{fill:#FFFFFF;}
	.st5{fill:#49A9DF;}
	.st6{fill:#D3D4D4;stroke:#231F20;stroke-width:3.2;stroke-linejoin:round;stroke-miterlimit:10;}
	.st7{fill:#D3D4D4;}
	.st8{fill:#5A5B5D;}
	.st9{fill:#939598;}
	.st10{fill:#E6E7E7;}
	.st11{fill:#FAA438;}
	.st12{fill:#F3F3F3;}
</style>
<g>
	<g class="st0">
		<ellipse class="st1" cx="230.99" cy="132.7" rx="124.7" ry="132.7"/>
		<ellipse class="st1" cx="106.28" cy="231.39" rx="63.68" ry="67.77"/>
	</g>
	<g>
		<g>
			<rect x="70.88" y="192.24" class="st2" width="10.74" height="68.56"/>
			<rect x="30.99" y="249.38" class="st2" width="98.19" height="11.43"/>
			<g>
				<path class="st3" d="M123.05,257.56h-6.91v-3.27h6.91C123.05,254.29,123.05,257.56,123.05,257.56z M109.24,257.56h-6.91v-3.27
					h6.91V257.56z M95.44,257.56h-6.91v-3.27h6.91C95.44,254.29,95.44,257.56,95.44,257.56z M81.62,257.56h-6.91v-3.27h6.91V257.56z
					 M68.58,257.56h-6.91v-3.27h6.91V257.56z M54.77,257.56h-6.91v-3.27h6.91V257.56z M40.96,257.56h-6.91v-3.27h6.91V257.56z"/>
			</g>
			<g>
				<path class="st3" d="M77.79,249.38h-3.08v-7.34h3.08V249.38z M77.79,234.69h-3.08v-7.34h3.08V234.69z M77.79,220.81h-3.08v-7.34
					h3.08V220.81z M77.79,206.12h-3.08v-7.34h3.08V206.12z"/>
			</g>
		</g>
		<g>
			<rect x="165.25" y="82.86" class="st2" width="10.74" height="69.39"/>
			<rect x="125.35" y="140.01" class="st4" width="98.19" height="12.25"/>
			<g>
				<path class="st3" d="M217.42,147.34h-6.91v-3.27h6.91V147.34z M203.6,147.34h-6.91v-3.27h6.91V147.34z M190.56,147.34h-6.91
					v-3.27h6.91V147.34z M176.75,147.34h-6.91v-3.27h6.91V147.34z M162.95,147.34h-6.91v-3.27h6.91V147.34z M149.13,147.34h-6.91
					v-3.27h6.91C149.13,144.07,149.13,147.34,149.13,147.34z M135.33,147.34h-6.91v-3.27h6.91
					C135.33,144.07,135.33,147.34,135.33,147.34z"/>
			</g>
			<g>
				<path class="st3" d="M172.92,140.01h-3.08v-7.34h3.08V140.01z M172.92,125.3h-3.08v-7.34h3.08V125.3z M172.92,110.61h-3.08
					v-7.34h3.08V110.61z M172.92,95.91h-3.08v-7.34h3.08V95.91z"/>
			</g>
		</g>
		<g>
			<rect x="302.57" y="171.84" class="st2" width="11.51" height="68.56"/>
			<rect x="261.9" y="228.98" class="st2" width="98.19" height="11.43"/>
			<g>
				<g>
					<rect x="265.74" y="233.05" class="st3" width="3.08" height="3.27"/>
				</g>
				<g>
					<path class="st3" d="M347.83,236.32h-6.91v-3.27h6.91V236.32z M334.79,236.32h-6.91v-3.27h6.91V236.32z M321.75,236.32h-6.91
						v-3.27h6.91V236.32z M308.7,236.32h-6.91v-3.27h6.91V236.32z M295.66,236.32h-6.91v-3.27h6.91V236.32z M282.62,236.32h-6.91
						v-3.27h6.91V236.32z"/>
				</g>
				<g>
					<rect x="353.96" y="233.05" class="st3" width="3.08" height="3.27"/>
				</g>
			</g>
			<g>
				<path class="st3" d="M309.46,228.98h-3.08v-7.34h3.08V228.98z M309.46,214.28h-3.08v-7.34h3.08V214.28z M309.46,199.59h-3.08
					v-7.34h3.08V199.59z M309.46,185.71h-3.08v-7.34h3.08V185.71z"/>
			</g>
		</g>
		<g>
			<path class="st5" d="M156.13,162.44c-7.84,0-15.13,2.22-21.14,6.63c-4.07-4.93-9.69-8.56-16.04-9.69c0.25-1.89,0.4-3.92,0.4-5.9
				c0-22.92-18.27-41.34-40.16-39.58c-18.1,1.45-32.72,16.94-34.26,36.18c-0.36,4.43,0.01,8.66,0.92,12.71
				c-2.76-0.69-5.64-0.32-8.59-0.32c-20.59,0-37.27,16-37.27,40.39h193.41C193.4,178.46,176.73,162.44,156.13,162.44z"/>
			<g>
				<path class="st6" d="M0.59,201.56"/>
			</g>
			<g>
				<path class="st7" d="M45.85,162.97c0,0,4.56,3.89,6.05,4.71"/>
				<path class="st3" d="M51.27,168.96c-1.57-0.87-5.8-4.46-6.28-4.87l1.7-2.26c1.79,1.53,4.82,4.01,5.82,4.55L51.27,168.96z"/>
			</g>
			<g>
				<path class="st7" d="M134.98,168.9c0,0-2.05,3.74-2.14,6.63"/>
				<path class="st3" d="M134.2,175.58l-2.73-0.09c0.09-3.21,2.24-7.15,2.33-7.31l2.36,1.47
					C135.64,170.59,134.27,173.51,134.2,175.58z"/>
			</g>
		</g>
		<g>
			<path class="st5" d="M229.09,59.57c-7.84,0-15.14,2.2-21.14,6.62c-4.07-4.93-9.69-8.57-16.05-9.7c0.25-1.89,0.4-3.93,0.4-5.9
				c0-22.88-18.22-41.3-40.07-39.59c-17.64,1.36-32.1,16.1-34.22,34.8c-0.55,4.93-0.21,9.64,0.79,14.09
				c-2.76-0.69-5.64-0.29-8.59-0.29c-20.59,0-37.27,16.03-37.27,40.43h193.41C266.36,75.59,249.68,59.57,229.09,59.57z"/>
			<g>
				<path class="st6" d="M73.56,98.53"/>
			</g>
			<g>
				<path class="st7" d="M118.82,59.94c0,0,4.56,3.89,6.05,4.73"/>
				<path class="st3" d="M124.23,65.95c-1.57-0.87-5.78-4.46-6.27-4.87l1.7-2.26c1.79,1.53,4.82,4.01,5.82,4.55L124.23,65.95z"/>
			</g>
			<g>
				<path class="st7" d="M207.95,65.88c0,0-2.05,3.74-2.14,6.63"/>
				<path class="st3" d="M207.16,72.56l-2.73-0.09c0.09-3.21,2.24-7.15,2.33-7.31l2.36,1.47C208.59,67.57,207.22,70.5,207.16,72.56z
					"/>
			</g>
		</g>
		<g>
			<path class="st5" d="M362.72,149.18c-7.84,0-15.13,2.11-21.14,6.53c-4.07-4.93-9.68-8.61-16.04-9.74c0.25-1.89,0.4-3.95,0.4-5.93
				c0-22.97-18.35-41.43-40.29-39.59c-18.09,1.53-32.64,17.04-34.14,36.26c-0.33,4.39,0.03,8.6,0.94,12.59
				c-2.76-0.69-5.64-0.13-8.59-0.13c-20.59,0-37.27,16.2-37.27,40.59H400C400,165.39,383.31,149.18,362.72,149.18z"/>
			<g>
				<path class="st6" d="M207.19,188.17"/>
			</g>
			<g>
				<path class="st7" d="M252.45,149.57c0,0,4.56,3.89,6.05,4.71"/>
				<path class="st3" d="M257.87,155.58c-1.57-0.87-5.8-4.46-6.27-4.87l1.7-2.26c1.79,1.53,4.82,4.01,5.82,4.55L257.87,155.58z"/>
			</g>
			<g>
				<path class="st7" d="M341.58,155.52c0,0-2.05,3.74-2.14,6.63"/>
				<path class="st3" d="M340.8,162.2l-2.73-0.09c0.09-3.21,2.24-7.15,2.33-7.31l2.36,1.47C342.24,157.21,340.86,160.14,340.8,162.2
					z"/>
			</g>
		</g>
		<g>
			<rect x="130.72" y="167.76" class="st8" width="144.99" height="14.69"/>
			<rect x="129.18" y="224.89" class="st8" width="144.99" height="15.5"/>
			<rect x="128.42" y="282.86" class="st8" width="144.99" height="15.5"/>
			<g>
				<rect x="119.22" y="123.67" class="st9" width="168.01" height="43.26"/>
				<path class="st3" d="M287.39,168.56H119.81c-0.75,0-1.37-0.65-1.37-1.45v-43.63c0-0.79,0.6-1.45,1.37-1.45H287.4
					c0.75,0,1.37,0.65,1.37,1.45v43.63C288.76,167.92,288.15,168.56,287.39,168.56z M120.75,166.11h164.94V125.3H120.75V166.11z"/>
			</g>
			<g>
				<rect x="118.45" y="182.43" class="st9" width="168.01" height="42.46"/>
				<path class="st3" d="M286.63,226.53H119.05c-0.75,0-1.37-0.65-1.37-1.45v-42.81c0-0.79,0.6-1.45,1.37-1.45h167.59
					c0.75,0,1.37,0.65,1.37,1.45v42.81C287.99,225.87,287.38,226.53,286.63,226.53z M119.97,224.08h164.94v-40.01H119.97V224.08z"/>
			</g>
			<g>
				<rect x="117.67" y="240.4" class="st9" width="168.01" height="42.46"/>
				<path class="st3" d="M285.86,284.49H118.27c-0.75,0-1.37-0.65-1.37-1.45v-42.81c0-0.79,0.6-1.45,1.37-1.45h167.59
					c0.75,0,1.37,0.65,1.37,1.45v42.81C287.23,283.84,286.61,284.49,285.86,284.49z M119.22,282.04h164.94v-40.01H119.22V282.04z"/>
			</g>
			<g>
				<rect x="110.01" y="296.73" class="st3" width="185.66" height="3.27"/>
			</g>
			<g>
				<rect x="129.18" y="132.65" class="st3" width="3.08" height="22.04"/>
			</g>
			<g>
				<rect x="138.39" y="132.65" class="st3" width="3.08" height="22.04"/>
			</g>
			<g>
				<rect x="146.83" y="132.65" class="st3" width="3.08" height="22.04"/>
			</g>
			<g>
				<rect x="156.04" y="132.65" class="st3" width="3.08" height="22.04"/>
			</g>
			<g>
				<rect x="164.48" y="132.65" class="st3" width="3.08" height="22.04"/>
			</g>
			<rect x="174.44" y="132.65" class="st10" width="100.5" height="11.43"/>
			<path class="st4" d="M267.64,147.46c0,6.05-4.61,10.93-10.27,10.93c-5.68,0-10.27-4.9-10.27-10.93c0-6.05,4.61-10.93,10.27-10.93
				C263.05,136.53,267.64,141.41,267.64,147.46z"/>
			<g>
				<rect x="254.24" y="145.71" class="st3" width="6.91" height="3.27"/>
			</g>
			<path class="st4" d="M151.06,203.32c0,6.05-4.61,10.93-10.27,10.93c-5.68,0-10.27-4.9-10.27-10.93c0-6.03,4.61-10.93,10.27-10.93
				C146.47,192.4,151.06,197.28,151.06,203.32z"/>
			<g>
				<rect x="137.63" y="201.22" class="st3" width="7.67" height="3.27"/>
			</g>
			<path class="st4" d="M184.47,203.32c0,6.05-4.61,10.93-10.28,10.93c-5.68,0-10.27-4.9-10.27-10.93c0-6.03,4.61-10.93,10.27-10.93
				C179.87,192.4,184.47,197.28,184.47,203.32z"/>
			<g>
				<rect x="171.38" y="201.22" class="st3" width="6.91" height="3.27"/>
			</g>
			<path class="st4" d="M216.52,203.32c0,6.05-4.61,10.93-10.27,10.93s-10.27-4.9-10.27-10.93c0-6.03,4.61-10.93,10.27-10.93
				S216.52,197.28,216.52,203.32z"/>
			<g>
				<rect x="203.6" y="201.22" class="st3" width="6.91" height="3.27"/>
			</g>
			<g>
				<rect x="174.44" y="150.62" class="st3" width="53.69" height="3.27"/>
			</g>
			<g>
				<rect x="232.76" y="150.62" class="st3" width="6.91" height="3.27"/>
			</g>
			<rect x="177.52" y="135.09" class="st11" width="3.08" height="6.53"/>
			<rect x="184.43" y="135.09" class="st11" width="3.08" height="6.53"/>
			<rect x="191.34" y="135.09" class="st11" width="3.08" height="6.53"/>
			<rect x="198.23" y="135.09" class="st11" width="3.08" height="6.53"/>
			<rect x="204.38" y="135.09" class="st11" width="3.08" height="6.53"/>
			<rect x="212.03" y="135.09" class="st8" width="3.08" height="6.53"/>
			<rect x="218.18" y="135.09" class="st8" width="3.08" height="6.53"/>
			<rect x="225.09" y="135.09" class="st8" width="3.08" height="6.53"/>
			<rect x="231.99" y="135.09" class="st8" width="3.08" height="6.53"/>
			<rect x="239.65" y="135.09" class="st8" width="3.08" height="6.53"/>
			<rect x="227.39" y="192.24" class="st12" width="7.67" height="13.06"/>
			<rect x="240.43" y="192.24" class="st11" width="7.67" height="13.06"/>
			<rect x="254.24" y="192.24" class="st12" width="7.67" height="13.06"/>
			<rect x="268.05" y="192.24" class="st11" width="7.67" height="13.06"/>
			<g>
				<rect x="229.69" y="197.96" class="st3" width="3.08" height="15.5"/>
			</g>
			<g>
				<rect x="243.49" y="197.96" class="st3" width="3.08" height="15.5"/>
			</g>
			<g>
				<rect x="257.3" y="197.96" class="st3" width="3.08" height="15.5"/>
			</g>
			<g>
				<rect x="270.35" y="197.96" class="st3" width="3.08" height="15.5"/>
			</g>
			<g>
				<rect x="227.39" y="197.14" class="st3" width="7.67" height="3.27"/>
			</g>
			<g>
				<rect x="240.43" y="197.14" class="st3" width="7.67" height="3.27"/>
			</g>
			<g>
				<rect x="254.24" y="197.14" class="st3" width="7.67" height="3.27"/>
			</g>
			<g>
				<rect x="268.05" y="197.14" class="st3" width="7.67" height="3.27"/>
			</g>
			<rect x="218.18" y="249.38" class="st11" width="56" height="22.86"/>
			<path class="st4" d="M149.71,261.37c0,6.05-4.61,10.93-10.28,10.93s-10.27-4.9-10.27-10.93c0-6.05,4.61-10.93,10.27-10.93
				C145.09,250.43,149.71,255.33,149.71,261.37z"/>
			<g>
				<rect x="136.09" y="259.17" class="st3" width="7.67" height="3.27"/>
			</g>
			<g>
				<rect x="225.85" y="249.38" class="st3" width="3.08" height="22.86"/>
			</g>
			<g>
				<rect x="223.55" y="247.75" class="st3" width="7.67" height="3.27"/>
			</g>
			<g>
				<rect x="237.36" y="249.38" class="st3" width="3.08" height="22.86"/>
			</g>
			<g>
				<rect x="235.06" y="270.6" class="st3" width="8.43" height="3.27"/>
			</g>
			<g>
				<rect x="253.47" y="249.38" class="st3" width="3.08" height="22.86"/>
			</g>
			<g>
				<rect x="250.4" y="247.75" class="st3" width="8.43" height="3.27"/>
			</g>
			<g>
				<rect x="264.98" y="249.38" class="st3" width="3.08" height="22.86"/>
			</g>
			<g>
				<rect x="261.9" y="270.6" class="st3" width="8.43" height="3.27"/>
			</g>
			<g>
				<rect x="159.1" y="252.64" class="st3" width="52.17" height="3.27"/>
			</g>
			<g>
				<rect x="159.1" y="259.17" class="st3" width="52.17" height="3.27"/>
			</g>
			<g>
				<rect x="159.1" y="267.35" class="st3" width="52.17" height="3.27"/>
			</g>
		</g>
		<g>
			<rect x="302.57" y="296.73" class="st3" width="16.12" height="3.27"/>
		</g>
		<g>
			<rect x="96.96" y="296.73" class="st3" width="7.67" height="3.27"/>
		</g>
	</g>
</g>
</svg>
